<svg width="165" height="5" viewBox="0 0 165 5" fill="none" xmlns="http://www.w3.org/2000/svg">
<line y1="2.5" x2="5" y2="2.5" stroke="#6E675D" stroke-opacity="0.6"/>
<line x1="2.5" y1="5" x2="2.5" stroke="#6E675D" stroke-opacity="0.6"/>
<line x1="67" y1="2.5" x2="72" y2="2.5" stroke="#6E675D" stroke-opacity="0.6"/>
<line x1="69.5" y1="5" x2="69.5" stroke="#6E675D" stroke-opacity="0.6"/>
<line x1="30" y1="2.5" x2="35" y2="2.5" stroke="#6E675D" stroke-opacity="0.6"/>
<line x1="32.5" y1="5" x2="32.5" stroke="#6E675D" stroke-opacity="0.6"/>
<line x1="97" y1="2.5" x2="102" y2="2.5" stroke="#6E675D" stroke-opacity="0.6"/>
<line x1="99.5" y1="5" x2="99.5" stroke="#6E675D" stroke-opacity="0.6"/>
<line x1="134" y1="2.5" x2="139" y2="2.5" stroke="#6E675D" stroke-opacity="0.6"/>
<line x1="136.5" y1="5" x2="136.5" stroke="#6E675D" stroke-opacity="0.6"/>
<line x1="15" y1="2.5" x2="20" y2="2.5" stroke="#6E675D" stroke-opacity="0.6"/>
<line x1="17.5" y1="5" x2="17.5" stroke="#6E675D" stroke-opacity="0.6"/>
<line x1="82" y1="2.5" x2="87" y2="2.5" stroke="#6E675D" stroke-opacity="0.6"/>
<line x1="84.5" y1="5" x2="84.5" stroke="#6E675D" stroke-opacity="0.6"/>
<line x1="45" y1="2.5" x2="50" y2="2.5" stroke="#6E675D" stroke-opacity="0.6"/>
<line x1="47.5" y1="5" x2="47.5" stroke="#6E675D" stroke-opacity="0.6"/>
<line x1="112" y1="2.5" x2="117" y2="2.5" stroke="#6E675D" stroke-opacity="0.6"/>
<line x1="114.5" y1="5" x2="114.5" stroke="#6E675D" stroke-opacity="0.6"/>
<line x1="149" y1="2.5" x2="154" y2="2.5" stroke="#6E675D" stroke-opacity="0.6"/>
<line x1="151.5" y1="5" x2="151.5" stroke="#6E675D" stroke-opacity="0.6"/>
<line x1="56" y1="2.5" x2="61" y2="2.5" stroke="#6E675D" stroke-opacity="0.6"/>
<line x1="58.5" y1="5" x2="58.5" stroke="#6E675D" stroke-opacity="0.6"/>
<line x1="123" y1="2.5" x2="128" y2="2.5" stroke="#6E675D" stroke-opacity="0.6"/>
<line x1="125.5" y1="5" x2="125.5" stroke="#6E675D" stroke-opacity="0.6"/>
<line x1="160" y1="2.5" x2="165" y2="2.5" stroke="#6E675D" stroke-opacity="0.6"/>
<line x1="162.5" y1="5" x2="162.5" stroke="#6E675D" stroke-opacity="0.6"/>
</svg>
